HIERARCHY
ROOT Hips
{
 OFFSET 0.000000 0.000000 0.000000
 CHANNELS 6 Xposition Yposition Zposition Yrotation Xrotation Zrotation
 JOINT Chest
 {
  OFFSET 0.000000 9.585900 0.002600
  CHANNELS 3 Yrotation Xrotation Zrotation
  JOINT Chest2
  {
   OFFSET 0.000000 9.601200 -0.005300
   CHANNELS 3 Yrotation Xrotation Zrotation
   JOINT Chest3
   {
    OFFSET 0.000000 9.561800 0.000000
    CHANNELS 3 Yrotation Xrotation Zrotation
    JOINT Chest4
    {
     OFFSET 0.000000 9.552100 0.000000
     CHANNELS 3 Yrotation Xrotation Zrotation
     JOINT Neck
     {
      OFFSET 0.000000 14.453000 0.000000
      CHANNELS 3 Yrotation Xrotation Zrotation
      JOINT Head
      {
       OFFSET 0.000000 8.936500 -0.011300
       CHANNELS 3 Yrotation Xrotation Zrotation
       End Site
       {
        OFFSET 0.000000 17.073600 -0.006000
       }
      }
     }
     JOINT RightCollar
     {
      OFFSET -2.921100 9.558500 0.000000
      CHANNELS 3 Yrotation Xrotation Zrotation
      JOINT RightShoulder
      {
       OFFSET -13.519700 0.000000 0.000000
       CHANNELS 3 Yrotation Xrotation Zrotation
       JOINT RightElbow
       {
        OFFSET 0.000000 -29.696600 0.000000
        CHANNELS 3 Yrotation Xrotation Zrotation
        JOINT RightWrist
        {
         OFFSET 0.000000 -24.004700 0.000000
         CHANNELS 3 Yrotation Xrotation Zrotation
         End Site
         {
          OFFSET 0.000000 -17.728500 0.000000
         }
        }
       }
      }
     }
     JOINT LeftCollar
     {
      OFFSET 2.921100 9.558500 0.000000
      CHANNELS 3 Yrotation Xrotation Zrotation
      JOINT LeftShoulder
      {
       OFFSET 13.519700 0.000000 0.000000
       CHANNELS 3 Yrotation Xrotation Zrotation
       JOINT LeftElbow
       {
        OFFSET 0.000000 -29.696600 0.000000
        CHANNELS 3 Yrotation Xrotation Zrotation
        JOINT LeftWrist
        {
         OFFSET 0.000000 -24.004700 0.000000
         CHANNELS 3 Yrotation Xrotation Zrotation
         End Site
         {
          OFFSET 0.000000 -17.728500 0.000000
         }
        }
       }
      }
     }
    }
   }
  }
 }
 JOINT RightHip
 {
  OFFSET -7.771700 -0.012900 -0.001300
  CHANNELS 3 Yrotation Xrotation Zrotation
  JOINT RightKnee
  {
   OFFSET 0.000000 -40.869800 0.001200
   CHANNELS 3 Yrotation Xrotation Zrotation
   JOINT RightAnkle
   {
    OFFSET 0.000000 -39.717900 0.002100
    CHANNELS 3 Yrotation Xrotation Zrotation
    JOINT RightToe
    {
     OFFSET 0.000000 -4.965400 11.033500
     CHANNELS 3 Yrotation Xrotation Zrotation
     End Site
     {
      OFFSET 0.000000 -1.423100 5.872300
     }
    }
   }
  }
 }
 JOINT LeftHip
 {
  OFFSET 7.771700 -0.012900 -0.001300
  CHANNELS 3 Yrotation Xrotation Zrotation
  JOINT LeftKnee
  {
   OFFSET 0.000000 -40.869800 0.001200
   CHANNELS 3 Yrotation Xrotation Zrotation
   JOINT LeftAnkle
   {
    OFFSET 0.000000 -39.717900 0.002100
    CHANNELS 3 Yrotation Xrotation Zrotation
    JOINT LeftToe
    {
     OFFSET 0.000000 -4.965400 11.033500
     CHANNELS 3 Yrotation Xrotation Zrotation
     End Site
     {
      OFFSET 0.000000 -1.423100 5.872300
     }
    }
   }
  }
 }
}
MOTION
Frames: 9
Frame Time: 0.008333
-52.474357 62.128974 13.680251 175.667297 -50.854792 1.054638 4.370382 26.861421 1.750618 0.627383 4.512791 0.265229 0.999537 7.166800 0.433456 3.312028 21.665262 1.757883 0.551963 15.291761 0.029491 1.032986 -7.424306 -0.161194 4.938768 4.931130 5.007134 -4.205065 -8.743906 -12.441305 -130.807031 -58.078049 160.524931 20.216501 -2.872310 -13.728886 -8.865932 1.883557 0.201209 -5.129533 -3.369535 14.948334 118.984872 -68.393536 -142.393700 4.886702 -9.323000 6.373460 3.639892 -16.105650 -7.600359 2.178463 61.991449 -2.543101 1.781770 -9.621433 10.750424 0.047187 -0.171005 0.004033 0.658668 -4.782407 5.891085 119.994061 83.635358 128.515869 -4.618115 -16.724565 -10.464215 0.452938 -21.558500 -1.036074
-52.470829 62.128263 13.679376 175.661622 -50.844985 1.043077 4.380387 26.852530 1.764583 0.624121 4.518809 0.257741 1.001794 7.166675 0.432906 3.314952 21.660021 1.756449 0.551134 15.298811 0.036391 1.026973 -7.404561 -0.147341 4.957808 4.933395 5.010718 -4.209025 -8.745659 -12.431430 -130.776300 -58.119054 160.503094 20.223975 -2.856770 -13.707931 -8.877369 1.879310 0.204418 -5.125573 -3.367433 14.953745 118.941688 -68.412780 -142.359608 4.879212 -9.320324 6.359754 3.636877 -16.116077 -7.584947 2.178682 61.989096 -2.536452 1.785212 -9.619152 10.743768 0.046306 -0.171089 0.004612 0.661436 -4.790435 5.909189 120.072494 83.638209 128.595945 -4.604928 -16.735630 -10.464139 0.449940 -21.553635 -1.040496
-52.469157 62.127880 13.677829 175.655168 -50.837847 1.041976 4.383840 26.850719 1.761467 0.624837 4.517900 0.257213 1.002816 7.165209 0.431971 3.312698 21.658306 1.753436 0.557380 15.300895 0.044066 1.012979 -7.372941 -0.126401 4.975766 4.935774 5.014877 -4.211464 -8.746396 -12.422247 -130.745499 -58.158886 160.480361 20.232121 -2.855542 -13.693142 -8.887769 1.881413 0.206842 -5.112062 -3.370988 14.959902 118.903980 -68.425947 -142.337159 4.880344 -9.282655 6.316536 3.641187 -16.122573 -7.579588 2.158468 61.988101 -2.550119 1.796178 -9.619525 10.745889 0.045453 -0.170525 0.003659 0.660535 -4.795401 5.919622 120.117089 83.641120 128.635466 -4.604560 -16.740686 -10.462984 0.450599 -21.552549 -1.040767
-52.467538 62.127286 13.676191 175.651536 -50.829560 1.037277 4.373694 26.852615 1.744203 0.633198 4.511450 0.265642 1.003239 7.163882 0.430969 3.312547 21.658935 1.750355 0.565403 15.300861 0.050983 1.007708 -7.357211 -0.113084 5.005330 4.935348 5.016706 -4.229354 -8.743892 -12.409557 -130.685168 -58.221003 160.455524 20.248191 -2.861759 -13.694071 -8.923693 1.875292 0.201304 -5.070879 -3.368269 14.972362 118.843728 -68.444868 -142.307021 4.871275 -9.284239 6.319396 3.642930 -16.130939 -7.572403 2.151150 61.988576 -2.551719 1.794224 -9.617806 10.750517 0.048080 -0.171386 -0.000124 0.659335 -4.803233 5.931290 120.181402 83.643804 128.695894 -4.602113 -16.743418 -10.461123 0.455690 -21.554059 -1.043728
-52.465993 62.126907 13.674191 175.648533 -50.823438 1.030841 4.370945 26.851281 1.740692 0.627242 4.515131 0.257244 1.003973 7.162974 0.429875 3.320829 21.655273 1.754929 0.569535 15.303610 0.053892 1.010724 -7.353308 -0.102147 5.046686 4.931142 5.014747 -4.251670 -8.740734 -12.382826 -130.650183 -58.276757 160.445866 20.263772 -2.835686 -13.672688 -8.932487 1.865949 0.200777 -5.060161 -3.362712 14.979496 118.820012 -68.451936 -142.284157 4.866519 -9.267233 6.300474 3.642969 -16.137209 -7.563384 2.136712 61.988889 -2.561273 1.800380 -9.615132 10.750379 0.043990 -0.172796 0.004104 0.656986 -4.808268 5.944941 120.232312 83.642779 128.739413 -4.596812 -16.748367 -10.458731 0.452228 -21.553322 -1.045977
-52.461344 62.125997 13.672708 175.654987 -50.814055 0.996501 4.372534 26.844527 1.761443 0.633451 4.511684 0.261934 0.994260 7.167755 0.421888 3.323738 21.653912 1.754295 0.570605 15.306384 0.058955 1.018770 -7.350730 -0.096856 5.082194 4.923982 5.012069 -4.269462 -8.737681 -12.370580 -130.621118 -58.308427 160.430471 20.270707 -2.801902 -13.646143 -8.939206 1.856346 0.199090 -5.041890 -3.356044 14.985315 118.759306 -68.460850 -142.247963 4.851005 -9.267934 6.299377 3.631388 -16.146362 -7.532778 2.123029 61.984339 -2.565943 1.807740 -9.607159 10.747839 0.043767 -0.177445 0.001189 0.648199 -4.816436 5.979213 120.246877 83.639778 128.746698 -4.574361 -16.753295 -10.451085 0.434310 -21.547595 -1.059838
-52.465752 62.126755 13.669402 175.642623 -50.816889 1.029789 4.359377 26.853283 1.724807 0.633941 4.512920 0.260734 0.996485 7.165732 0.423693 3.318877 21.654677 1.749242 0.566209 15.315303 0.061826 1.034647 -7.352353 -0.092789 5.109820 4.918197 5.010642 -4.266978 -8.734235 -12.361966 -130.628177 -58.322996 160.426071 20.270506 -2.749289 -13.599883 -8.942755 1.846210 0.195281 -5.026417 -3.347907 14.992704 118.687243 -68.470504 -142.196736 4.833461 -9.285681 6.307121 3.647566 -16.143934 -7.560826 2.120853 61.993262 -2.567518 1.809561 -9.611799 10.752624 0.044436 -0.178908 0.000451 0.657512 -4.811044 5.958456 120.251617 83.639174 128.747403 -4.595650 -16.757121 -10.454109 0.451860 -21.549759 -1.049294
-52.465663 62.126563 13.667246 175.629721 -50.812736 1.034529 4.360534 26.852421 1.718872 0.634648 4.512991 0.261943 1.003364 7.163212 0.427420 3.305434 21.657411 1.740618 0.572388 15.318967 0.065280 1.045007 -7.345538 -0.088543 5.130026 4.914064 5.012311 -4.247706 -8.731635 -12.358817 -130.596036 -58.374194 160.409361 20.284689 -2.726855 -13.587694 -8.935130 1.839607 0.194549 -5.021710 -3.341485 14.991850 118.640976 -68.488544 -142.168190 4.820334 -9.284319 6.307907 3.653931 -16.148659 -7.554563 2.094095 61.994124 -2.591933 1.822656 -9.610243 10.756679 0.044718 -0.179038 0.000770 0.666196 -4.812860 5.967781 120.249956 83.638854 128.744220 -4.601420 -16.759695 -10.452241 0.454071 -21.550302 -1.049044
-52.465557 62.126391 13.665273 175.627839 -50.808652 1.029058 4.355907 26.851731 1.714540 0.623874 4.516279 0.253226 1.012688 7.158415 0.433346 3.302318 21.659582 1.738670 0.579884 15.323156 0.067808 1.058098 -7.337746 -0.086524 5.163756 4.906855 5.008880 -4.256892 -8.729279 -12.351726 -130.509655 -58.477625 160.369134 20.303199 -2.755636 -13.597597 -8.941246 1.825428 0.183480 -5.004498 -3.334984 14.999501 118.531101 -68.518532 -142.084708 4.787878 -9.244989 6.292844 3.654332 -16.153335 -7.548663 2.087508 61.995863 -2.594784 1.828871 -9.606678 10.758573 0.044181 -0.181305 0.001302 0.668615 -4.815569 5.978648 120.273316 83.640260 128.767770 -4.604529 -16.764579 -10.453697 0.458965 -21.548977 -1.046739
